<svg xmlns="http://www.w3.org/2000/svg" xmlns:xlink="http://www.w3.org/1999/xlink" width="2000" zoomAndPan="magnify" viewBox="0 0 1500 1499.999933" height="2000" preserveAspectRatio="xMidYMid meet" version="1.0"><defs><clipPath id="8503085aa2"><path d="M 750 0 C 335.785156 0 0 335.785156 0 750 C 0 1164.214844 335.785156 1500 750 1500 C 1164.214844 1500 1500 1164.214844 1500 750 C 1500 335.785156 1164.214844 0 750 0 Z M 750 0 " clip-rule="nonzero"/></clipPath><clipPath id="4378eb6124"><path d="M 0 0 L 1500 0 L 1500 1500 L 0 1500 Z M 0 0 " clip-rule="nonzero"/></clipPath><clipPath id="55e2a67dab"><path d="M 750 0 C 335.785156 0 0 335.785156 0 750 C 0 1164.214844 335.785156 1500 750 1500 C 1164.214844 1500 1500 1164.214844 1500 750 C 1500 335.785156 1164.214844 0 750 0 Z M 750 0 " clip-rule="nonzero"/></clipPath><clipPath id="de20051114"><rect x="0" width="1500" y="0" height="1500"/></clipPath></defs><g clip-path="url(#8503085aa2)"><g transform="matrix(1, 0, 0, 1, 0, 0.000000000000112861)"><g clip-path="url(#de20051114)"><g clip-path="url(#4378eb6124)"><g clip-path="url(#55e2a67dab)"><rect x="-330" width="2160" fill="#008c46" height="2159.999904" y="-329.999985" fill-opacity="1"/></g></g></g></g></g></svg>